# xmcd CD database file
#
# Track frame offsets:
#	182
#	40512
#	92305
#	126662
#	175210
#	218330
#	264420
#	290080
#
# Disc length: 4457 seconds
#
# Revision: 0
# Processed by: cddbd v1.5PL3 Copyright (c) Steve Scherf et al.
# Submitted via: CDex 1.51
#
DISCID=6a116708
DTITLE=Antonín Dvorák - Symphonie Nr. 9 and Symphonie Nr. 8
DYEAR=1900
DGENRE=Jazz
TTITLE0=Aus der Neuen Welt: Adagio - Allegro molto
TTITLE1=Aus der Neuen Welt: Largo
TTITLE2=Aus der Neuen Welt: Scherzo. Molto vivace
TTITLE3=Aus der Neuen Welt: Allegro con fuoco
TTITLE4=Englische Symphonie: Allegro con brio
TTITLE5=Englische Symphonie: Adagio
TTITLE6=Englische Symphonie: Allegretto grazioso
TTITLE7=Englische Symphonie: Allegro ma non troppo
EXTD=
EXTT0=
EXTT1=
EXTT2=
EXTT3=
EXTT4=
EXTT5=
EXTT6=
EXTT7=
PLAYORDER=
